<?xml version="1.0" standalone="no"?><svg xmlns="http://www.w3.org/2000/svg" viewBox="0 0 1440 320"><path fill="#48cae4" fill-opacity="1" d="M0,192L0,0L96,0L96,256L192,256L192,96L288,96L288,32L384,32L384,160L480,160L480,96L576,96L576,160L672,160L672,64L768,64L768,128L864,128L864,256L960,256L960,288L1056,288L1056,128L1152,128L1152,288L1248,288L1248,64L1344,64L1344,96L1440,96L1440,0L1344,0L1344,0L1248,0L1248,0L1152,0L1152,0L1056,0L1056,0L960,0L960,0L864,0L864,0L768,0L768,0L672,0L672,0L576,0L576,0L480,0L480,0L384,0L384,0L288,0L288,0L192,0L192,0L96,0L96,0L0,0L0,0Z"></path></svg>